<mxfile host="app.diagrams.net" modified="2023-09-21T12:05:09.797Z" agent="Mozilla/5.0 (Windows NT 10.0; Win64; x64) AppleWebKit/537.36 (KHTML, like Gecko) Chrome/117.0.0.0 Safari/537.36" etag="lvQKqzTdLcfbYttllqUX" version="21.8.0" type="device">
  <diagram name="1 oldal" id="gps3z_2zBtLTs1l704r0">
    <mxGraphModel dx="1434" dy="790" grid="1" gridSize="10" guides="1" tooltips="1" connect="1" arrows="1" fold="1" page="1" pageScale="1" pageWidth="827" pageHeight="1169" math="0" shadow="0">
      <root>
        <mxCell id="0" />
        <mxCell id="1" parent="0" />
        <mxCell id="7yIkWZdPID-0P9wcdhFD-1" value="&lt;u&gt;Név&lt;/u&gt;" style="ellipse;whiteSpace=wrap;html=1;" vertex="1" parent="1">
          <mxGeometry x="170" y="210" width="80" height="60" as="geometry" />
        </mxCell>
        <mxCell id="7yIkWZdPID-0P9wcdhFD-2" value="Logo" style="ellipse;whiteSpace=wrap;html=1;" vertex="1" parent="1">
          <mxGeometry x="300" y="180" width="80" height="60" as="geometry" />
        </mxCell>
        <mxCell id="7yIkWZdPID-0P9wcdhFD-3" value="edző" style="ellipse;whiteSpace=wrap;html=1;" vertex="1" parent="1">
          <mxGeometry x="170" y="380" width="80" height="60" as="geometry" />
        </mxCell>
        <mxCell id="7yIkWZdPID-0P9wcdhFD-4" value="mezszám" style="ellipse;whiteSpace=wrap;html=1;" vertex="1" parent="1">
          <mxGeometry x="460" y="220" width="80" height="60" as="geometry" />
        </mxCell>
        <mxCell id="7yIkWZdPID-0P9wcdhFD-5" value="&lt;u&gt;név&lt;/u&gt;" style="ellipse;whiteSpace=wrap;html=1;" vertex="1" parent="1">
          <mxGeometry x="650" y="190" width="80" height="60" as="geometry" />
        </mxCell>
        <mxCell id="7yIkWZdPID-0P9wcdhFD-7" value="csapat" style="rounded=0;whiteSpace=wrap;html=1;" vertex="1" parent="1">
          <mxGeometry x="290" y="320" width="100" height="50" as="geometry" />
        </mxCell>
        <mxCell id="7yIkWZdPID-0P9wcdhFD-8" value="játékosok" style="rhombus;whiteSpace=wrap;html=1;" vertex="1" parent="1">
          <mxGeometry x="450" y="340" width="90" height="70" as="geometry" />
        </mxCell>
        <mxCell id="7yIkWZdPID-0P9wcdhFD-9" value="játékos" style="rounded=0;whiteSpace=wrap;html=1;" vertex="1" parent="1">
          <mxGeometry x="590" y="300" width="99" height="50" as="geometry" />
        </mxCell>
        <mxCell id="7yIkWZdPID-0P9wcdhFD-10" value="" style="endArrow=none;html=1;rounded=0;entryX=0;entryY=0.5;entryDx=0;entryDy=0;exitX=1;exitY=1;exitDx=0;exitDy=0;" edge="1" parent="1" source="7yIkWZdPID-0P9wcdhFD-1" target="7yIkWZdPID-0P9wcdhFD-7">
          <mxGeometry width="50" height="50" relative="1" as="geometry">
            <mxPoint x="390" y="430" as="sourcePoint" />
            <mxPoint x="440" y="380" as="targetPoint" />
          </mxGeometry>
        </mxCell>
        <mxCell id="7yIkWZdPID-0P9wcdhFD-12" value="" style="endArrow=none;html=1;rounded=0;entryX=0.09;entryY=1.02;entryDx=0;entryDy=0;entryPerimeter=0;exitX=1;exitY=0.5;exitDx=0;exitDy=0;" edge="1" parent="1" source="7yIkWZdPID-0P9wcdhFD-3" target="7yIkWZdPID-0P9wcdhFD-7">
          <mxGeometry width="50" height="50" relative="1" as="geometry">
            <mxPoint x="390" y="430" as="sourcePoint" />
            <mxPoint x="440" y="380" as="targetPoint" />
          </mxGeometry>
        </mxCell>
        <mxCell id="7yIkWZdPID-0P9wcdhFD-13" value="" style="endArrow=none;html=1;rounded=0;" edge="1" parent="1" source="7yIkWZdPID-0P9wcdhFD-8">
          <mxGeometry width="50" height="50" relative="1" as="geometry">
            <mxPoint x="390" y="430" as="sourcePoint" />
            <mxPoint x="390" y="360" as="targetPoint" />
          </mxGeometry>
        </mxCell>
        <mxCell id="7yIkWZdPID-0P9wcdhFD-15" value="" style="endArrow=none;html=1;rounded=0;entryX=0.5;entryY=1;entryDx=0;entryDy=0;" edge="1" parent="1" source="7yIkWZdPID-0P9wcdhFD-8" target="7yIkWZdPID-0P9wcdhFD-4">
          <mxGeometry width="50" height="50" relative="1" as="geometry">
            <mxPoint x="390" y="430" as="sourcePoint" />
            <mxPoint x="440" y="380" as="targetPoint" />
          </mxGeometry>
        </mxCell>
        <mxCell id="7yIkWZdPID-0P9wcdhFD-16" value="" style="endArrow=none;html=1;rounded=0;exitX=0;exitY=0.5;exitDx=0;exitDy=0;entryX=0.833;entryY=0.357;entryDx=0;entryDy=0;entryPerimeter=0;" edge="1" parent="1" source="7yIkWZdPID-0P9wcdhFD-9" target="7yIkWZdPID-0P9wcdhFD-8">
          <mxGeometry width="50" height="50" relative="1" as="geometry">
            <mxPoint x="390" y="430" as="sourcePoint" />
            <mxPoint x="440" y="380" as="targetPoint" />
          </mxGeometry>
        </mxCell>
        <mxCell id="7yIkWZdPID-0P9wcdhFD-17" value="" style="endArrow=none;html=1;rounded=0;entryX=0.5;entryY=1;entryDx=0;entryDy=0;" edge="1" parent="1" source="7yIkWZdPID-0P9wcdhFD-9" target="7yIkWZdPID-0P9wcdhFD-5">
          <mxGeometry width="50" height="50" relative="1" as="geometry">
            <mxPoint x="390" y="430" as="sourcePoint" />
            <mxPoint x="440" y="380" as="targetPoint" />
          </mxGeometry>
        </mxCell>
        <mxCell id="7yIkWZdPID-0P9wcdhFD-18" value="" style="endArrow=none;html=1;rounded=0;entryX=0.5;entryY=1;entryDx=0;entryDy=0;exitX=0.5;exitY=0;exitDx=0;exitDy=0;" edge="1" parent="1" source="7yIkWZdPID-0P9wcdhFD-7" target="7yIkWZdPID-0P9wcdhFD-2">
          <mxGeometry width="50" height="50" relative="1" as="geometry">
            <mxPoint x="390" y="430" as="sourcePoint" />
            <mxPoint x="440" y="380" as="targetPoint" />
          </mxGeometry>
        </mxCell>
        <mxCell id="7yIkWZdPID-0P9wcdhFD-19" value="csapat" style="swimlane;whiteSpace=wrap;html=1;labelBackgroundColor=none;" vertex="1" parent="1">
          <mxGeometry x="110" y="480" width="160" height="180" as="geometry" />
        </mxCell>
        <mxCell id="7yIkWZdPID-0P9wcdhFD-21" value="név&lt;br&gt;" style="text;html=1;align=center;verticalAlign=middle;resizable=0;points=[];autosize=1;strokeColor=none;fillColor=none;" vertex="1" parent="7yIkWZdPID-0P9wcdhFD-19">
          <mxGeometry y="40" width="40" height="30" as="geometry" />
        </mxCell>
        <mxCell id="7yIkWZdPID-0P9wcdhFD-23" value="edző" style="text;html=1;align=center;verticalAlign=middle;resizable=0;points=[];autosize=1;strokeColor=none;fillColor=none;" vertex="1" parent="7yIkWZdPID-0P9wcdhFD-19">
          <mxGeometry x="-5" y="80" width="50" height="30" as="geometry" />
        </mxCell>
        <mxCell id="7yIkWZdPID-0P9wcdhFD-24" value="logó" style="text;html=1;align=center;verticalAlign=middle;resizable=0;points=[];autosize=1;strokeColor=none;fillColor=none;" vertex="1" parent="7yIkWZdPID-0P9wcdhFD-19">
          <mxGeometry x="-5" y="125" width="50" height="30" as="geometry" />
        </mxCell>
        <mxCell id="7yIkWZdPID-0P9wcdhFD-30" value="mezszáma" style="text;html=1;align=center;verticalAlign=middle;resizable=0;points=[];autosize=1;strokeColor=none;fillColor=none;" vertex="1" parent="7yIkWZdPID-0P9wcdhFD-19">
          <mxGeometry x="74" y="125" width="80" height="30" as="geometry" />
        </mxCell>
        <mxCell id="7yIkWZdPID-0P9wcdhFD-38" style="edgeStyle=orthogonalEdgeStyle;rounded=0;orthogonalLoop=1;jettySize=auto;html=1;" edge="1" parent="1" source="7yIkWZdPID-0P9wcdhFD-25">
          <mxGeometry relative="1" as="geometry">
            <mxPoint x="650" y="540" as="targetPoint" />
          </mxGeometry>
        </mxCell>
        <mxCell id="7yIkWZdPID-0P9wcdhFD-25" value="játékosok" style="swimlane;whiteSpace=wrap;html=1;labelBackgroundColor=none;" vertex="1" parent="1">
          <mxGeometry x="400" y="480" width="160" height="180" as="geometry" />
        </mxCell>
        <mxCell id="7yIkWZdPID-0P9wcdhFD-26" value="csapatnév" style="text;html=1;align=center;verticalAlign=middle;resizable=0;points=[];autosize=1;strokeColor=none;fillColor=none;" vertex="1" parent="7yIkWZdPID-0P9wcdhFD-25">
          <mxGeometry y="40" width="80" height="30" as="geometry" />
        </mxCell>
        <mxCell id="7yIkWZdPID-0P9wcdhFD-27" value="játékosnév" style="text;html=1;align=center;verticalAlign=middle;resizable=0;points=[];autosize=1;strokeColor=none;fillColor=none;" vertex="1" parent="7yIkWZdPID-0P9wcdhFD-25">
          <mxGeometry x="4" y="80" width="80" height="30" as="geometry" />
        </mxCell>
        <mxCell id="7yIkWZdPID-0P9wcdhFD-28" value="mezszáma" style="text;html=1;align=center;verticalAlign=middle;resizable=0;points=[];autosize=1;strokeColor=none;fillColor=none;" vertex="1" parent="7yIkWZdPID-0P9wcdhFD-25">
          <mxGeometry x="4" y="125" width="80" height="30" as="geometry" />
        </mxCell>
        <mxCell id="7yIkWZdPID-0P9wcdhFD-33" value="játékos" style="swimlane;whiteSpace=wrap;html=1;labelBackgroundColor=none;" vertex="1" parent="1">
          <mxGeometry x="650" y="480" width="160" height="180" as="geometry" />
        </mxCell>
        <mxCell id="7yIkWZdPID-0P9wcdhFD-34" value="név" style="text;html=1;align=center;verticalAlign=middle;resizable=0;points=[];autosize=1;strokeColor=none;fillColor=none;" vertex="1" parent="7yIkWZdPID-0P9wcdhFD-33">
          <mxGeometry x="59" y="50" width="40" height="30" as="geometry" />
        </mxCell>
        <mxCell id="7yIkWZdPID-0P9wcdhFD-37" style="edgeStyle=orthogonalEdgeStyle;rounded=0;orthogonalLoop=1;jettySize=auto;html=1;entryX=-0.012;entryY=0.7;entryDx=0;entryDy=0;entryPerimeter=0;" edge="1" parent="1" source="7yIkWZdPID-0P9wcdhFD-19" target="7yIkWZdPID-0P9wcdhFD-26">
          <mxGeometry relative="1" as="geometry" />
        </mxCell>
      </root>
    </mxGraphModel>
  </diagram>
</mxfile>
